<svg width="20" height="20" viewBox="0 0 20 20" fill="none" xmlns="http://www.w3.org/2000/svg">
<path d="M10 17.5C14.1421 17.5 17.5 14.1421 17.5 10C17.5 5.85786 14.1421 2.5 10 2.5C5.85786 2.5 2.5 5.85786 2.5 10C2.5 14.1421 5.85786 17.5 10 17.5Z" stroke="#334059" stroke-width="1.5" stroke-linecap="round" stroke-linejoin="round"/>
<path d="M16.7315 13.3104L12.4904 10.702C12.4161 10.6562 12.333 10.6266 12.2465 10.6149L10.4638 10.3746C10.3299 10.3566 10.1938 10.3824 10.0758 10.4482C9.95786 10.514 9.86439 10.6162 9.8094 10.7396L8.73919 13.141C8.68941 13.2527 8.67349 13.3765 8.69339 13.4972C8.71329 13.6178 8.76814 13.73 8.85114 13.8197L10.3199 15.4084C10.3865 15.4804 10.4352 15.5671 10.462 15.6614C10.4889 15.7557 10.4932 15.8551 10.4746 15.9514L10.1754 17.498" stroke="#334059" stroke-width="1.5" stroke-linecap="round" stroke-linejoin="round"/>
<path d="M5.0743 4.34424L4.37553 5.99656C4.31323 6.14389 4.30978 6.3095 4.36591 6.45929L5.26363 8.85524C5.30039 8.95336 5.36123 9.04065 5.44055 9.10911C5.51987 9.17757 5.61513 9.22498 5.71756 9.247L7.39178 9.60684C7.48468 9.6268 7.5718 9.66769 7.64652 9.72638C7.72125 9.78508 7.7816 9.86004 7.823 9.94557L8.12032 10.5598C8.17149 10.6655 8.2514 10.7546 8.35089 10.817C8.45039 10.8794 8.56545 10.9125 8.68288 10.9125H9.7323" stroke="#334059" stroke-width="1.5" stroke-linecap="round" stroke-linejoin="round"/>
<path d="M11.9106 2.74597L12.6398 4.0521C12.7087 4.17557 12.7337 4.31877 12.7108 4.45831C12.6878 4.59784 12.6182 4.72546 12.5133 4.82031L10.4109 6.72168C10.3752 6.75395 10.3359 6.78199 10.2938 6.80525L9.33741 7.3334C9.2449 7.38449 9.14095 7.41129 9.03527 7.41129H7.36766C7.24468 7.41129 7.12444 7.44757 7.02198 7.51558C6.91953 7.5836 6.83942 7.68033 6.79168 7.79366L6.14111 9.33806" stroke="#334059" stroke-width="1.5" stroke-linecap="round" stroke-linejoin="round"/>
</svg>
